HIERARCHY
ROOT Hips
{
	OFFSET 0.00000 0.00000 0.00000
	CHANNELS 6 Xposition Yposition Zposition Zrotation Yrotation Xrotation 
	JOINT LHipJoint
	{
		OFFSET 0 0 0
		CHANNELS 3 Zrotation Yrotation Xrotation
		JOINT LeftHip
		{
			OFFSET 1.61024 -1.73873 0.75100
			CHANNELS 3 Zrotation Yrotation Xrotation
			JOINT LeftKnee
			{
				OFFSET 2.29819 -6.31424 0.00000
				CHANNELS 3 Zrotation Yrotation Xrotation
				JOINT LeftAnkle
				{
					OFFSET 2.76618 -7.60002 0.00000
					CHANNELS 3 Zrotation Yrotation Xrotation
					JOINT LeftToe
					{
						OFFSET 0.16838 -0.46263 2.02361
						CHANNELS 3 Zrotation Yrotation Xrotation
						End Site
						{
							OFFSET 0.00000 -0.00000 1.04662
						}
					}
				}
			}
		}
	}
	JOINT RHipJoint
	{
		OFFSET 0 0 0
		CHANNELS 3 Zrotation Yrotation Xrotation
		JOINT RightHip
		{
			OFFSET -1.46153 -1.73873 0.75100
			CHANNELS 3 Zrotation Yrotation Xrotation
			JOINT RightKnee
			{
				OFFSET -2.38373 -6.54924 0.00000
				CHANNELS 3 Zrotation Yrotation Xrotation
				JOINT RightAnkle
				{
					OFFSET -2.80314 -7.70157 0.00000
					CHANNELS 3 Zrotation Yrotation Xrotation
					JOINT RightToe
					{
						OFFSET -0.16142 -0.44349 2.02101
						CHANNELS 3 Zrotation Yrotation Xrotation
						End Site
						{
							OFFSET -0.00000 -0.00000 1.04381
						}
					}
				}
			}
		}
	}
	JOINT lowerback
	{
		OFFSET 0 0 0
		CHANNELS 3 Zrotation Yrotation Xrotation
		JOINT Chest
		{
			OFFSET -0.01629 1.66985 0.14750
			CHANNELS 3 Zrotation Yrotation Xrotation
			JOINT Chest2
			{
				OFFSET 0.02086 1.62378 0.20980
				CHANNELS 3 Zrotation Yrotation Xrotation
				JOINT lowerneck
				{
					OFFSET 0 0 0
					CHANNELS 3 Zrotation Yrotation Xrotation
					JOINT Neck
					{
						OFFSET -0.05690 1.78719 0.08702
						CHANNELS 3 Zrotation Yrotation Xrotation
						JOINT Head
						{
							OFFSET 0.16035 1.73871 -0.38470
							CHANNELS 3 Zrotation Yrotation Xrotation
							End Site
							{
								OFFSET 0.05645 1.80914 -0.14081
							}
						}
					}
				}
				JOINT LeftCollar
				{
					OFFSET 0 0 0
					CHANNELS 3 Zrotation Yrotation Xrotation
					JOINT LeftShoulder
					{
						OFFSET 2.83089 1.66494 -0.46008
CHANNELS 3 Zrotation Xrotation Yrotation
						JOINT LeftElbow
						{
OFFSET 0 -5.548930 -0.000000
CHANNELS 3 Zrotation Xrotation Yrotation
							JOINT LeftWrist
							{
OFFSET 0 -3.028980 -0.000000
CHANNELS 3 Zrotation Xrotation Yrotation
								JOINT lhand
								{
									OFFSET 0 0 0
CHANNELS 3 Zrotation Xrotation Yrotation
									JOINT LFingers
									{
OFFSET 0 -0.640950 -0.000000
CHANNELS 3 Zrotation Xrotation Yrotation
										End Site
										{
OFFSET 0 -0.516750 -0.000000
										}
									}
								}
								JOINT LThumb
								{
OFFSET 0 0.000000 0.000000
CHANNELS 3 Zrotation Xrotation Yrotation
									End Site
									{
OFFSET 0 -0.524640 0.524640
									}
								}
							}
						}
					}
				}
				JOINT RightCollar
				{
					OFFSET 0 0 0
					CHANNELS 3 Zrotation Yrotation Xrotation
					JOINT RightShoulder
					{
						OFFSET -2.84442 1.45761 -0.18088
CHANNELS 3 Zrotation Xrotation Yrotation
						JOINT RightElbow
						{
OFFSET 0 -5.351900 -0.000000
CHANNELS 3 Zrotation Xrotation Yrotation
							JOINT RightWrist
							{
OFFSET 0 -3.025310 -0.000000
CHANNELS 3 Zrotation Xrotation Yrotation
								JOINT rhand
								{
									OFFSET 0 0 0
CHANNELS 3 Zrotation Xrotation Yrotation
									JOINT RFingers
									{
OFFSET 0 -0.783890 -0.000000
CHANNELS 3 Zrotation Xrotation Yrotation
										End Site
										{
OFFSET 0 -0.631990 -0.000000
										}
									}
								}
								JOINT RThumb
								{
OFFSET 0 0.000000 0.000000
CHANNELS 3 Zrotation Xrotation Yrotation
									End Site
									{
OFFSET 0 -0.641640 0.641640
									}
								}
							}
						}
					}
				}
			}
		}
	}
}
MOTION
Frames: 11
Frame Time: .0083333
0.3558 17.8194 0.5064 -59.7767 87.9614 -42.1727 0.0000 0.0000 0.0000 0.0000 0.0000 0.0000 0.0000 0.0000 0.0000 0.0000 0.0000 0.0000 0.0000 0.0000 0.0000 0.0000 0.0000 0.0000 17.5605 16.7370 -10.1182 -0.4297 -4.2067 11.6590 -0.0347 -13.1356 -19.0914 -0.8993 6.0438 -16.9115 -0.6706 -1.9543 -10.4261 1.8613 -1.8642 -11.2419 2.2044 -0.5358 -5.9011 -5.5659 -2.9317 -12.7485 8.5117 -4.6259 24.4918 3.4161 -1.5097 10.2344 -0.0000 -0.0000 0.0000 0.1796 12.7405 38.0508 6.7370 -11.4856 0.6783 -5.2537 -9.015 -15.3034 0.0 0.0 0.0 -7.1250 0.0 0.0 -29.4062 43.1561 -1.477 -0.0000 -0.0000 0.0000 -3.8846 15.9074 -3.089 -7.4587 -12.6716 -0.8293 -12.7984 -13.6071 -15.5588 0.0 0.0 0.0 7.1250 0.0 -0.0 9.9819 14.2137 7.3397
0.3516 17.8186 0.5095 -57.3679 87.9733 -39.7748 0.0000 0.0000 0.0000 0.0000 0.0000 0.0000 0.0000 0.0000 0.0000 0.0000 0.0000 0.0000 0.0000 0.0000 0.0000 0.0000 0.0000 0.0000 17.4832 16.9165 -10.0989 -0.4330 -4.2225 11.7036 -0.0219 -13.2503 -19.0989 -0.9187 6.1069 -17.0949 -0.8142 -1.9438 -10.4150 1.8378 -1.8468 -11.2117 2.2608 -0.5199 -5.8709 -5.4889 -2.9340 -12.7896 8.4954 -4.6406 24.4304 3.3930 -1.5122 10.2192 -0.0000 0.0000 0.0000 0.019 13.0677 32.4138 7.3393 -12.4762 0.8033 -3.752 -13.9708 -15.5495 0.0 0.0 0.0 -7.1250 0.0 0.0 -28.2700 43.5406 -1.1139 -0.0000 0.0000 0.0000 -3.9067 16.0913 -0.177 -7.8264 -13.271 -0.9119 -13.1554 -14.4077 -16.4808 0.0 0.0 0.0 7.1250 0.0 -0.0 9.7448 13.2565 7.3601
0.3473 17.8192 0.5092 -54.7850 88.0183 -37.1754 0.0000 0.0000 0.0000 0.0000 0.0000 0.0000 0.0000 0.0000 0.0000 0.0000 0.0000 0.0000 0.0000 0.0000 0.0000 0.0000 0.0000 0.0000 17.3561 16.9885 -10.1667 -0.4396 -4.2545 11.7938 -0.0170 -13.2796 -19.0812 -0.9474 6.1988 -17.3624 -0.9241 -1.9556 -10.4021 1.8099 -1.8607 -11.1902 2.2922 -0.5221 -5.8511 -5.3916 -2.9200 -12.9502 8.4353 -4.6281 24.4823 3.3567 -1.5007 10.2646 -0.0000 0.0000 0.0000 -0.1745 13.4572 26.6723 8.0868 -13.6935 0.9726 -2.0826 -18.8573 -16.1111 0.0 0.0 0.0 -7.1250 0.0 0.0 -27.1125 44.229 -0.5592 -0.0000 0.0000 0.0000 -3.9972 16.3484 3.609 -8.3692 -14.1496 -1.0405 -13.7694 -15.7507 -17.3633 0.0 0.0 0.0 7.1250 0.0 -0.0 9.3467 12.3116 7.2381
0.3440 17.8196 0.5082 -52.4725 88.0572 -34.8721 0.0000 0.0000 0.0000 0.0000 0.0000 0.0000 0.0000 0.0000 0.0000 0.0000 0.0000 0.0000 0.0000 0.0000 0.0000 0.0000 0.0000 0.0000 17.2494 17.0776 -10.1801 -0.4457 -4.2835 11.8757 -0.0263 -13.2870 -19.2009 -0.9301 6.1437 -17.2020 -0.9782 -1.9532 -10.3622 1.7688 -1.8586 -11.1807 2.2802 -0.5200 -5.8621 -5.4124 -2.9234 -13.0199 8.4890 -4.6417 24.5153 3.3786 -1.5006 10.2932 -0.0000 0.0000 0.0000 -0.3714 13.9794 20.8406 9.0717 -15.2746 1.2189 -0.2695 -23.529 -16.7874 0.0 0.0 0.0 -7.1250 0.0 0.0 -25.8605 45.0473 0.0324 -0.0000 0.0000 0.0000 -4.1349 16.7428 7.9085 -9.1345 -15.3746 -1.2355 -14.5128 -17.6106 -17.6156 0.0 0.0 0.0 7.1250 0.0 -0.0 8.8613 11.9845 6.9134
0.3389 17.8199 0.5059 -50.7461 88.0733 -33.1367 0.0000 0.0000 0.0000 0.0000 0.0000 0.0000 0.0000 0.0000 0.0000 0.0000 0.0000 0.0000 0.0000 0.0000 0.0000 0.0000 0.0000 0.0000 17.1727 17.0189 -10.2688 -0.4482 -4.2952 11.9086 -0.0295 -13.2247 -19.1527 -0.9381 6.1692 -17.2760 -0.9807 -1.9298 -10.3239 1.7232 -1.8294 -11.1879 2.2364 -0.5069 -5.8938 -5.4431 -2.9302 -13.0235 8.5823 -4.6653 24.4503 3.4128 -1.5051 10.2755 0.0000 0.0000 0.0000 -0.492 14.5028 15.4557 10.2132 -17.0724 1.537 1.7373 -27.8355 -17.5971 0.0 0.0 0.0 -7.1250 0.0 0.0 -24.4730 46.0248 0.6584 0.0000 0.0000 0.0000 -4.3224 17.181 12.3947 -10.1479 -16.9707 -1.5178 -15.233 -19.5271 -16.8251 0.0 0.0 0.0 7.1250 0.0 -0.0 8.3691 12.7156 6.3919
0.3317 17.8205 0.5055 -49.8614 88.0678 -32.2504 0.0000 0.0000 0.0000 0.0000 0.0000 0.0000 0.0000 0.0000 0.0000 0.0000 0.0000 0.0000 0.0000 0.0000 0.0000 0.0000 0.0000 0.0000 17.1440 17.0176 -10.2949 -0.4461 -4.2854 11.8810 -0.0206 -13.2498 -19.0828 -0.9481 6.2011 -17.3689 -0.9930 -1.9059 -10.2950 1.6907 -1.8022 -11.1557 2.2107 -0.4958 -5.8761 -5.4526 -2.9254 -13.0479 8.6766 -4.6757 24.3277 3.4436 -1.5030 10.2394 0.0000 -0.0000 0.0000 -0.4401 14.8527 10.8266 11.2834 -18.7213 1.8659 2.7854 -31.4485 -17.7722 0.0 0.0 0.0 -7.1250 0.0 0.0 -23.6288 46.3164 0.8126 0.0000 -0.0000 0.0000 -4.5841 17.5526 16.8151 -11.3371 -18.8031 -1.8831 -15.7958 -21.6097 -15.7559 0.0 0.0 0.0 7.1250 0.0 -0.0 7.9727 13.7515 5.9076
0.3241 17.8216 0.5054 -50.2269 88.0112 -32.6165 0.0000 0.0000 0.0000 0.0000 0.0000 0.0000 0.0000 0.0000 0.0000 0.0000 0.0000 0.0000 0.0000 0.0000 0.0000 0.0000 0.0000 0.0000 17.1946 17.0198 -10.2884 -0.4406 -4.2589 11.8063 -0.0132 -13.2614 -19.0111 -0.9533 6.2176 -17.4171 -0.9341 -1.8772 -10.2644 1.6887 -1.7711 -11.1251 2.1777 -0.4862 -5.8624 -5.4315 -2.9241 -13.1046 8.6579 -4.6713 24.2528 3.4312 -1.5028 10.2220 0.0000 -0.0000 0.0000 -0.2894 15.1027 6.9518 12.2645 -20.2001 2.1927 2.7901 -34.1472 -17.2478 0.0 0.0 0.0 -7.1250 0.0 0.0 -23.4001 45.8367 0.5113 0.0000 -0.0000 0.0000 -4.9634 17.768 20.7754 -12.4406 -20.4621 -2.2539 -16.0871 -24.0046 -15.9295 0.0 0.0 0.0 7.1250 0.0 -0.0 7.7807 13.5462 5.7966
0.3168 17.8243 0.5069 -51.9293 87.9357 -34.3561 0.0000 0.0000 0.0000 0.0000 0.0000 0.0000 0.0000 0.0000 0.0000 0.0000 0.0000 0.0000 0.0000 0.0000 0.0000 0.0000 0.0000 0.0000 17.3147 17.0456 -10.1836 -0.4317 -4.2165 11.6867 -0.0170 -13.2305 -19.0134 -0.9171 6.1018 -17.0801 -0.8339 -1.8318 -10.1840 1.6827 -1.7204 -11.0995 2.1195 -0.4694 -5.8839 -5.3750 -2.9355 -13.1149 8.6322 -4.6908 24.1441 3.4064 -1.5127 10.1844 0.0000 -0.0000 0.0000 -0.0514 15.2907 3.3659 13.4129 -21.8892 2.6052 3.1944 -36.4917 -17.2906 0.0 0.0 0.0 -7.1250 0.0 0.0 -23.0629 45.9259 0.5566 0.0000 -0.0000 0.0000 -5.4136 17.9793 24.6753 -13.7176 -22.3296 -2.7199 -16.1201 -26.6172 -16.1438 0.0 0.0 0.0 7.1250 0.0 -0.0 7.7633 13.3237 5.8201
0.3121 17.8227 0.5122 -52.6963 87.7675 -35.1694 0.0000 0.0000 0.0000 0.0000 0.0000 0.0000 0.0000 0.0000 0.0000 0.0000 0.0000 0.0000 0.0000 0.0000 0.0000 0.0000 0.0000 0.0000 17.4846 17.1965 -10.0365 -0.4245 -4.1815 11.5878 -0.0153 -13.2448 -19.0121 -0.8705 5.9488 -16.6360 -0.7541 -1.7808 -10.1591 1.7182 -1.6611 -11.0461 2.1148 -0.4466 -5.8429 -5.4331 -2.9443 -13.1804 8.7119 -4.7067 24.0774 3.4409 -1.5173 10.1779 0.0000 0.0000 0.0000 0.2372 15.4196 -0.477 14.9107 -24.0215 3.1895 4.6764 -39.3298 -18.3117 0.0 0.0 0.0 -7.1250 0.0 0.0 -22.1832 47.0569 1.1823 0.0000 0.0000 0.0000 -6.0037 18.0893 28.6965 -15.1924 -24.4135 -3.3051 -16.0788 -29.0255 -15.906 0.0 0.0 0.0 7.1250 0.0 -0.0 7.7858 13.571 5.7964
0.3087 17.8209 0.5166 -50.5907 87.5611 -33.1198 0.0000 0.0000 0.0000 0.0000 0.0000 0.0000 0.0000 0.0000 0.0000 0.0000 0.0000 0.0000 0.0000 0.0000 0.0000 0.0000 0.0000 0.0000 17.5853 17.2779 -9.9450 -0.4206 -4.1626 11.5347 -0.0203 -13.1493 -18.9396 -0.8648 5.9297 -16.5805 -0.6985 -1.6885 -10.1983 1.7067 -1.5485 -10.9701 2.0755 -0.3986 -5.7444 -5.4604 -2.9462 -13.1529 8.8147 -4.7229 23.9065 3.4759 -1.5208 10.1157 -0.0000 0.0000 0.0000 0.6664 15.4088 -4.0371 16.4755 -26.1612 3.8532 6.0159 -41.4057 -18.9347 0.0 0.0 0.0 -7.1250 0.0 0.0 -21.2479 47.8151 1.5416 -0.0000 0.0000 0.0000 -6.5965 18.0298 32.3711 -16.7313 -26.5023 -3.9667 -16.1339 -31.1218 -15.7415 0.0 0.0 0.0 7.1250 0.0 -0.0 7.7454 13.7341 5.7388
0.3024 17.8213 0.5176 -47.6910 87.4656 -30.2400 0.0000 0.0000 0.0000 0.0000 0.0000 0.0000 0.0000 0.0000 0.0000 0.0000 0.0000 0.0000 0.0000 0.0000 0.0000 0.0000 0.0000 0.0000 17.5511 17.1937 -10.0159 -0.4224 -4.1714 11.5595 -0.0309 -12.9751 -18.8259 -0.9085 6.0737 -16.9984 -0.7370 -1.6383 -10.2309 1.6740 -1.4850 -10.9262 2.0648 -0.3681 -5.6808 -5.4437 -2.9576 -13.1493 8.8462 -4.7484 23.8331 3.4790 -1.5297 10.0913 0.0000 -0.0000 0.0000 1.1686 15.3138 -7.1281 17.8844 -28.0089 4.4948 6.7834 -41.6151 -18.8034 0.0 0.0 0.0 -7.1250 0.0 0.0 -20.4959 47.7973 1.4731 0.0000 -0.0000 0.0000 -7.1863 17.7805 35.5872 -18.3077 -28.5494 -4.6954 -16.154 -32.828 -15.8534 0.0 0.0 0.0 7.1250 0.0 -0.0 7.7343 13.6176 5.7496
